<mxfile host="app.diagrams.net" modified="2023-12-13T20:03:24.430Z" agent="Mozilla/5.0 (Windows NT 10.0; Win64; x64) AppleWebKit/537.36 (KHTML, like Gecko) Chrome/118.0.5993.732 YaBrowser/23.11.1.732 Yowser/2.5 Safari/537.36" etag="WbKU2QMlMsduJdbR_8MK" version="22.1.8" type="device">
  <diagram name="Страница — 1" id="3mVQlfiBgfyPtzx5OPET">
    <mxGraphModel dx="1993" dy="1279" grid="0" gridSize="10" guides="1" tooltips="1" connect="1" arrows="1" fold="1" page="0" pageScale="1" pageWidth="827" pageHeight="1169" math="0" shadow="0">
      <root>
        <mxCell id="0" />
        <mxCell id="1" parent="0" />
        <mxCell id="1TzVKd0D4Ryt2Q8upEGD-7" value="" style="edgeStyle=orthogonalEdgeStyle;rounded=0;orthogonalLoop=1;jettySize=auto;html=1;" parent="1" edge="1" target="1TzVKd0D4Ryt2Q8upEGD-6">
          <mxGeometry relative="1" as="geometry">
            <mxPoint x="413.83" y="640" as="sourcePoint" />
            <mxPoint x="413.83" y="540" as="targetPoint" />
            <Array as="points" />
          </mxGeometry>
        </mxCell>
        <mxCell id="1TzVKd0D4Ryt2Q8upEGD-1" value="Тренер" style="shape=umlActor;verticalLabelPosition=bottom;verticalAlign=top;html=1;outlineConnect=0;fillColor=#dae8fc;strokeColor=#6c8ebf;" parent="1" vertex="1">
          <mxGeometry x="399" y="630" width="30" height="60" as="geometry" />
        </mxCell>
        <mxCell id="1TzVKd0D4Ryt2Q8upEGD-9" value="" style="edgeStyle=orthogonalEdgeStyle;rounded=0;orthogonalLoop=1;jettySize=auto;html=1;" parent="1" edge="1" target="1TzVKd0D4Ryt2Q8upEGD-8">
          <mxGeometry relative="1" as="geometry">
            <mxPoint x="413.76" y="480" as="sourcePoint" />
            <mxPoint x="414" y="320" as="targetPoint" />
          </mxGeometry>
        </mxCell>
        <mxCell id="1TzVKd0D4Ryt2Q8upEGD-6" value="Пилот" style="shape=umlActor;verticalLabelPosition=bottom;verticalAlign=top;html=1;outlineConnect=0;fillColor=#dae8fc;strokeColor=#6c8ebf;" parent="1" vertex="1">
          <mxGeometry x="399" y="460" width="30" height="60" as="geometry" />
        </mxCell>
        <mxCell id="1TzVKd0D4Ryt2Q8upEGD-11" value="" style="edgeStyle=orthogonalEdgeStyle;rounded=0;orthogonalLoop=1;jettySize=auto;html=1;" parent="1" source="1TzVKd0D4Ryt2Q8upEGD-8" edge="1" target="1TzVKd0D4Ryt2Q8upEGD-10">
          <mxGeometry relative="1" as="geometry">
            <mxPoint x="414" y="330" as="sourcePoint" />
            <mxPoint x="414" y="90" as="targetPoint" />
          </mxGeometry>
        </mxCell>
        <mxCell id="1TzVKd0D4Ryt2Q8upEGD-10" value="Зритель" style="shape=umlActor;verticalLabelPosition=bottom;verticalAlign=top;html=1;outlineConnect=0;fillColor=#dae8fc;strokeColor=#6c8ebf;" parent="1" vertex="1">
          <mxGeometry x="399" y="10" width="30" height="60" as="geometry" />
        </mxCell>
        <mxCell id="1TzVKd0D4Ryt2Q8upEGD-16" value="Отвечает за тренировки пилота" style="ellipse;whiteSpace=wrap;html=1;fillColor=#dae8fc;strokeColor=#6c8ebf;" parent="1" vertex="1">
          <mxGeometry x="458" y="584" width="120" height="80" as="geometry" />
        </mxCell>
        <mxCell id="1TzVKd0D4Ryt2Q8upEGD-17" value="Разрабатывает стратегию гонки" style="ellipse;whiteSpace=wrap;html=1;fillColor=#dae8fc;strokeColor=#6c8ebf;" parent="1" vertex="1">
          <mxGeometry x="-23" y="620" width="120" height="80" as="geometry" />
        </mxCell>
        <mxCell id="1TzVKd0D4Ryt2Q8upEGD-18" value="Принимает тактические решения" style="ellipse;whiteSpace=wrap;html=1;fillColor=#dae8fc;strokeColor=#6c8ebf;" parent="1" vertex="1">
          <mxGeometry x="210" y="620" width="120" height="80" as="geometry" />
        </mxCell>
        <mxCell id="1TzVKd0D4Ryt2Q8upEGD-19" value="Анализирует данные" style="ellipse;whiteSpace=wrap;html=1;fillColor=#dae8fc;strokeColor=#6c8ebf;" parent="1" vertex="1">
          <mxGeometry x="463" y="686" width="120" height="80" as="geometry" />
        </mxCell>
        <mxCell id="1TzVKd0D4Ryt2Q8upEGD-20" value="Координирует работу команды" style="ellipse;whiteSpace=wrap;html=1;fillColor=#dae8fc;strokeColor=#6c8ebf;" parent="1" vertex="1">
          <mxGeometry x="93" y="759" width="140" height="90" as="geometry" />
        </mxCell>
        <mxCell id="1TzVKd0D4Ryt2Q8upEGD-21" value="" style="endArrow=classic;html=1;rounded=0;exitX=0.5;exitY=0.5;exitDx=0;exitDy=0;exitPerimeter=0;" parent="1" edge="1" target="1TzVKd0D4Ryt2Q8upEGD-19" source="1TzVKd0D4Ryt2Q8upEGD-1">
          <mxGeometry width="50" height="50" relative="1" as="geometry">
            <mxPoint x="390" y="660" as="sourcePoint" />
            <mxPoint x="320" y="645" as="targetPoint" />
          </mxGeometry>
        </mxCell>
        <mxCell id="1TzVKd0D4Ryt2Q8upEGD-22" value="" style="endArrow=classic;html=1;rounded=0;exitX=0.5;exitY=0.5;exitDx=0;exitDy=0;exitPerimeter=0;" parent="1" target="1TzVKd0D4Ryt2Q8upEGD-18" edge="1" source="1TzVKd0D4Ryt2Q8upEGD-1">
          <mxGeometry width="50" height="50" relative="1" as="geometry">
            <mxPoint x="400" y="670" as="sourcePoint" />
            <mxPoint x="330" y="655" as="targetPoint" />
          </mxGeometry>
        </mxCell>
        <mxCell id="1TzVKd0D4Ryt2Q8upEGD-23" value="" style="endArrow=classic;html=1;rounded=0;entryX=0;entryY=0.5;entryDx=0;entryDy=0;exitX=0.5;exitY=0.5;exitDx=0;exitDy=0;exitPerimeter=0;" parent="1" target="1TzVKd0D4Ryt2Q8upEGD-16" edge="1" source="1TzVKd0D4Ryt2Q8upEGD-1">
          <mxGeometry width="50" height="50" relative="1" as="geometry">
            <mxPoint x="409" y="659" as="sourcePoint" />
            <mxPoint x="550" y="580" as="targetPoint" />
          </mxGeometry>
        </mxCell>
        <mxCell id="1TzVKd0D4Ryt2Q8upEGD-24" value="" style="endArrow=classic;html=1;rounded=0;dashed=1;" parent="1" source="1TzVKd0D4Ryt2Q8upEGD-18" target="1TzVKd0D4Ryt2Q8upEGD-17" edge="1">
          <mxGeometry width="50" height="50" relative="1" as="geometry">
            <mxPoint x="133" y="654.6940402524256" as="sourcePoint" />
            <mxPoint x="640" y="619.12" as="targetPoint" />
          </mxGeometry>
        </mxCell>
        <mxCell id="1TzVKd0D4Ryt2Q8upEGD-25" value="" style="endArrow=classic;html=1;rounded=0;dashed=1;" parent="1" source="1TzVKd0D4Ryt2Q8upEGD-18" target="1TzVKd0D4Ryt2Q8upEGD-20" edge="1">
          <mxGeometry width="50" height="50" relative="1" as="geometry">
            <mxPoint x="450" y="704.8" as="sourcePoint" />
            <mxPoint x="581.6800000000001" y="770" as="targetPoint" />
          </mxGeometry>
        </mxCell>
        <mxCell id="1TzVKd0D4Ryt2Q8upEGD-26" value="Управляет машиной" style="ellipse;whiteSpace=wrap;html=1;fillColor=#dae8fc;strokeColor=#6c8ebf;" parent="1" vertex="1">
          <mxGeometry x="490" y="440" width="120" height="80" as="geometry" />
        </mxCell>
        <mxCell id="1TzVKd0D4Ryt2Q8upEGD-27" value="Обладает навыками&amp;nbsp;" style="ellipse;whiteSpace=wrap;html=1;fillColor=#dae8fc;strokeColor=#6c8ebf;" parent="1" vertex="1">
          <mxGeometry x="635" y="540" width="129" height="68" as="geometry" />
        </mxCell>
        <mxCell id="1TzVKd0D4Ryt2Q8upEGD-29" value="Знакомится с историей команд и пилотов" style="ellipse;whiteSpace=wrap;html=1;fillColor=#dae8fc;strokeColor=#6c8ebf;" parent="1" vertex="1">
          <mxGeometry x="492" width="120" height="80" as="geometry" />
        </mxCell>
        <mxCell id="1TzVKd0D4Ryt2Q8upEGD-30" value="Соблюдает правила и тактику гонки" style="ellipse;whiteSpace=wrap;html=1;fillColor=#dae8fc;strokeColor=#6c8ebf;" parent="1" vertex="1">
          <mxGeometry x="190" y="430" width="120" height="80" as="geometry" />
        </mxCell>
        <mxCell id="1TzVKd0D4Ryt2Q8upEGD-31" value="Принимает решения на трассе" style="ellipse;whiteSpace=wrap;html=1;fillColor=#dae8fc;strokeColor=#6c8ebf;" parent="1" vertex="1">
          <mxGeometry x="695" y="420" width="130" height="80" as="geometry" />
        </mxCell>
        <mxCell id="1TzVKd0D4Ryt2Q8upEGD-32" value="Принимает участие в испытаниях" style="ellipse;whiteSpace=wrap;html=1;fillColor=#dae8fc;strokeColor=#6c8ebf;" parent="1" vertex="1">
          <mxGeometry x="617" y="303" width="131" height="82" as="geometry" />
        </mxCell>
        <mxCell id="1TzVKd0D4Ryt2Q8upEGD-8" value="Комментатор" style="shape=umlActor;verticalLabelPosition=bottom;verticalAlign=top;html=1;outlineConnect=0;fillColor=#dae8fc;strokeColor=#6c8ebf;" parent="1" vertex="1">
          <mxGeometry x="399" y="240" width="30" height="60" as="geometry" />
        </mxCell>
        <mxCell id="1TzVKd0D4Ryt2Q8upEGD-36" value="" style="endArrow=classic;html=1;rounded=0;exitX=0.5;exitY=0.5;exitDx=0;exitDy=0;exitPerimeter=0;" parent="1" target="1TzVKd0D4Ryt2Q8upEGD-30" edge="1" source="1TzVKd0D4Ryt2Q8upEGD-6">
          <mxGeometry width="50" height="50" relative="1" as="geometry">
            <mxPoint x="390" y="490" as="sourcePoint" />
            <mxPoint x="330" y="655" as="targetPoint" />
          </mxGeometry>
        </mxCell>
        <mxCell id="1TzVKd0D4Ryt2Q8upEGD-37" value="" style="endArrow=classic;html=1;rounded=0;exitX=0.5;exitY=0.5;exitDx=0;exitDy=0;exitPerimeter=0;" parent="1" source="1TzVKd0D4Ryt2Q8upEGD-6" target="1TzVKd0D4Ryt2Q8upEGD-26" edge="1">
          <mxGeometry width="50" height="50" relative="1" as="geometry">
            <mxPoint x="330" y="623.2" as="sourcePoint" />
            <mxPoint x="385.8800000000001" y="440.00000000000017" as="targetPoint" />
          </mxGeometry>
        </mxCell>
        <mxCell id="1TzVKd0D4Ryt2Q8upEGD-38" value="" style="endArrow=classic;html=1;rounded=0;dashed=1;" parent="1" source="1TzVKd0D4Ryt2Q8upEGD-26" target="1TzVKd0D4Ryt2Q8upEGD-31" edge="1">
          <mxGeometry width="50" height="50" relative="1" as="geometry">
            <mxPoint x="620" y="460" as="sourcePoint" />
            <mxPoint x="680" y="460" as="targetPoint" />
          </mxGeometry>
        </mxCell>
        <mxCell id="1TzVKd0D4Ryt2Q8upEGD-39" value="" style="endArrow=classic;html=1;rounded=0;dashed=1;" parent="1" source="1TzVKd0D4Ryt2Q8upEGD-26" target="1TzVKd0D4Ryt2Q8upEGD-32" edge="1">
          <mxGeometry width="50" height="50" relative="1" as="geometry">
            <mxPoint x="560" y="440" as="sourcePoint" />
            <mxPoint x="620" y="440" as="targetPoint" />
          </mxGeometry>
        </mxCell>
        <mxCell id="1TzVKd0D4Ryt2Q8upEGD-40" value="" style="endArrow=classic;html=1;rounded=0;dashed=1;" parent="1" source="1TzVKd0D4Ryt2Q8upEGD-26" target="1TzVKd0D4Ryt2Q8upEGD-27" edge="1">
          <mxGeometry width="50" height="50" relative="1" as="geometry">
            <mxPoint x="499.65" y="550" as="sourcePoint" />
            <mxPoint x="570.0000000000001" y="556.3" as="targetPoint" />
          </mxGeometry>
        </mxCell>
        <mxCell id="1TzVKd0D4Ryt2Q8upEGD-41" value="Создает атмосферу" style="ellipse;whiteSpace=wrap;html=1;fillColor=#dae8fc;strokeColor=#6c8ebf;" parent="1" vertex="1">
          <mxGeometry x="64" y="141" width="118" height="71" as="geometry" />
        </mxCell>
        <mxCell id="1TzVKd0D4Ryt2Q8upEGD-43" value="Наблюдает за гонкой" style="ellipse;whiteSpace=wrap;html=1;fillColor=#dae8fc;strokeColor=#6c8ebf;" parent="1" vertex="1">
          <mxGeometry x="243" width="130" height="80" as="geometry" />
        </mxCell>
        <mxCell id="1TzVKd0D4Ryt2Q8upEGD-44" value="Проводит интервью с пилотами" style="ellipse;whiteSpace=wrap;html=1;fillColor=#dae8fc;strokeColor=#6c8ebf;" parent="1" vertex="1">
          <mxGeometry x="170" y="225" width="150" height="90" as="geometry" />
        </mxCell>
        <mxCell id="1TzVKd0D4Ryt2Q8upEGD-45" value="Информирует зрителей" style="ellipse;whiteSpace=wrap;html=1;fillColor=#dae8fc;strokeColor=#6c8ebf;" parent="1" vertex="1">
          <mxGeometry x="680" y="190" width="120" height="80" as="geometry" />
        </mxCell>
        <mxCell id="1TzVKd0D4Ryt2Q8upEGD-46" value="Информирует&lt;br&gt;&amp;nbsp;особенности стратегий и тактик команд" style="ellipse;whiteSpace=wrap;html=1;fillColor=#dae8fc;strokeColor=#6c8ebf;" parent="1" vertex="1">
          <mxGeometry x="585" y="90" width="120" height="80" as="geometry" />
        </mxCell>
        <mxCell id="1TzVKd0D4Ryt2Q8upEGD-47" value="Комментирует происходящее на трассе" style="ellipse;whiteSpace=wrap;html=1;fillColor=#dae8fc;strokeColor=#6c8ebf;" parent="1" vertex="1">
          <mxGeometry x="480" y="230" width="120" height="80" as="geometry" />
        </mxCell>
        <mxCell id="1TzVKd0D4Ryt2Q8upEGD-48" value="" style="endArrow=classic;html=1;rounded=0;exitX=0.5;exitY=0.5;exitDx=0;exitDy=0;exitPerimeter=0;" parent="1" source="1TzVKd0D4Ryt2Q8upEGD-8" target="1TzVKd0D4Ryt2Q8upEGD-44" edge="1">
          <mxGeometry width="50" height="50" relative="1" as="geometry">
            <mxPoint x="401" y="301.5625" as="sourcePoint" />
            <mxPoint x="320" y="310" as="targetPoint" />
          </mxGeometry>
        </mxCell>
        <mxCell id="1TzVKd0D4Ryt2Q8upEGD-50" value="" style="endArrow=classic;html=1;rounded=0;dashed=1;" parent="1" source="1TzVKd0D4Ryt2Q8upEGD-47" target="1TzVKd0D4Ryt2Q8upEGD-46" edge="1">
          <mxGeometry width="50" height="50" relative="1" as="geometry">
            <mxPoint x="540" y="230" as="sourcePoint" />
            <mxPoint x="575" y="190" as="targetPoint" />
          </mxGeometry>
        </mxCell>
        <mxCell id="1TzVKd0D4Ryt2Q8upEGD-51" value="" style="endArrow=classic;html=1;rounded=0;dashed=1;" parent="1" source="1TzVKd0D4Ryt2Q8upEGD-47" target="1TzVKd0D4Ryt2Q8upEGD-45" edge="1">
          <mxGeometry width="50" height="50" relative="1" as="geometry">
            <mxPoint x="600" y="465" as="sourcePoint" />
            <mxPoint x="635" y="425" as="targetPoint" />
          </mxGeometry>
        </mxCell>
        <mxCell id="1TzVKd0D4Ryt2Q8upEGD-53" value="" style="endArrow=classic;html=1;rounded=0;exitX=0.5;exitY=0.5;exitDx=0;exitDy=0;exitPerimeter=0;" parent="1" source="1TzVKd0D4Ryt2Q8upEGD-8" target="1TzVKd0D4Ryt2Q8upEGD-47" edge="1">
          <mxGeometry width="50" height="50" relative="1" as="geometry">
            <mxPoint x="409" y="281" as="sourcePoint" />
            <mxPoint x="329" y="289" as="targetPoint" />
          </mxGeometry>
        </mxCell>
        <mxCell id="1TzVKd0D4Ryt2Q8upEGD-54" value="&amp;nbsp;Оценивает гонщиков&amp;nbsp;" style="ellipse;whiteSpace=wrap;html=1;fillColor=#dae8fc;strokeColor=#6c8ebf;" parent="1" vertex="1">
          <mxGeometry x="47" y="-47" width="120" height="80" as="geometry" />
        </mxCell>
        <mxCell id="1TzVKd0D4Ryt2Q8upEGD-55" value="Поддерживает команду" style="ellipse;whiteSpace=wrap;html=1;fillColor=#dae8fc;strokeColor=#6c8ebf;" parent="1" vertex="1">
          <mxGeometry x="-66" y="22" width="120" height="80" as="geometry" />
        </mxCell>
        <mxCell id="1TzVKd0D4Ryt2Q8upEGD-57" value="" style="endArrow=classic;html=1;rounded=0;exitX=0.5;exitY=0.5;exitDx=0;exitDy=0;exitPerimeter=0;" parent="1" target="1TzVKd0D4Ryt2Q8upEGD-29" edge="1" source="1TzVKd0D4Ryt2Q8upEGD-10">
          <mxGeometry width="50" height="50" relative="1" as="geometry">
            <mxPoint x="390" y="30" as="sourcePoint" />
            <mxPoint x="339" y="18" as="targetPoint" />
          </mxGeometry>
        </mxCell>
        <mxCell id="1TzVKd0D4Ryt2Q8upEGD-58" value="" style="endArrow=classic;html=1;rounded=0;exitX=0.5;exitY=0.5;exitDx=0;exitDy=0;exitPerimeter=0;" parent="1" source="1TzVKd0D4Ryt2Q8upEGD-10" target="1TzVKd0D4Ryt2Q8upEGD-43" edge="1">
          <mxGeometry width="50" height="50" relative="1" as="geometry">
            <mxPoint x="509" y="36" as="sourcePoint" />
            <mxPoint x="429" y="44" as="targetPoint" />
          </mxGeometry>
        </mxCell>
        <mxCell id="1TzVKd0D4Ryt2Q8upEGD-60" value="" style="endArrow=classic;html=1;rounded=0;dashed=1;" parent="1" source="1TzVKd0D4Ryt2Q8upEGD-43" target="1TzVKd0D4Ryt2Q8upEGD-41" edge="1">
          <mxGeometry width="50" height="50" relative="1" as="geometry">
            <mxPoint x="600" y="100" as="sourcePoint" />
            <mxPoint x="635" y="60" as="targetPoint" />
            <Array as="points" />
          </mxGeometry>
        </mxCell>
        <mxCell id="1TzVKd0D4Ryt2Q8upEGD-61" value="" style="endArrow=classic;html=1;rounded=0;dashed=1;" parent="1" source="1TzVKd0D4Ryt2Q8upEGD-43" target="1TzVKd0D4Ryt2Q8upEGD-54" edge="1">
          <mxGeometry width="50" height="50" relative="1" as="geometry">
            <mxPoint x="190" y="140" as="sourcePoint" />
            <mxPoint x="225" y="100" as="targetPoint" />
          </mxGeometry>
        </mxCell>
        <mxCell id="1TzVKd0D4Ryt2Q8upEGD-62" value="&amp;lt;&amp;lt;Include&amp;gt;&amp;gt;" style="text;html=1;align=center;verticalAlign=middle;whiteSpace=wrap;rounded=0;rotation=50;" parent="1" vertex="1">
          <mxGeometry x="77" y="706.5" width="60" height="30" as="geometry" />
        </mxCell>
        <mxCell id="1TzVKd0D4Ryt2Q8upEGD-64" value="&amp;lt;&amp;lt;Include&amp;gt;&amp;gt;" style="text;html=1;align=center;verticalAlign=middle;whiteSpace=wrap;rounded=0;rotation=30;" parent="1" vertex="1">
          <mxGeometry x="605" y="510" width="50" height="20" as="geometry" />
        </mxCell>
        <mxCell id="1TzVKd0D4Ryt2Q8upEGD-66" value="&amp;lt;&amp;lt;Include&amp;gt;&amp;gt;" style="text;html=1;align=center;verticalAlign=middle;whiteSpace=wrap;rounded=0;rotation=-5;" parent="1" vertex="1">
          <mxGeometry x="620" y="445" width="60" height="30" as="geometry" />
        </mxCell>
        <mxCell id="1TzVKd0D4Ryt2Q8upEGD-67" value="&amp;lt;&amp;lt;Include&amp;gt;&amp;gt;" style="text;html=1;align=center;verticalAlign=middle;whiteSpace=wrap;rounded=0;rotation=-45;" parent="1" vertex="1">
          <mxGeometry x="570" y="400" width="60" height="30" as="geometry" />
        </mxCell>
        <mxCell id="1TzVKd0D4Ryt2Q8upEGD-68" value="&amp;lt;&amp;lt;Include&amp;gt;&amp;gt;" style="text;html=1;align=center;verticalAlign=middle;whiteSpace=wrap;rounded=0;rotation=-15;" parent="1" vertex="1">
          <mxGeometry x="600" y="230" width="60" height="30" as="geometry" />
        </mxCell>
        <mxCell id="1TzVKd0D4Ryt2Q8upEGD-69" value="&amp;lt;&amp;lt;Include&amp;gt;&amp;gt;" style="text;html=1;align=center;verticalAlign=middle;whiteSpace=wrap;rounded=0;rotation=-55;" parent="1" vertex="1">
          <mxGeometry x="550" y="180" width="60" height="30" as="geometry" />
        </mxCell>
        <mxCell id="1TzVKd0D4Ryt2Q8upEGD-70" value="&amp;lt;&amp;lt;Include&amp;gt;&amp;gt;" style="text;html=1;align=center;verticalAlign=middle;whiteSpace=wrap;rounded=0;rotation=-35;" parent="1" vertex="1">
          <mxGeometry x="183" y="84" width="60" height="30" as="geometry" />
        </mxCell>
        <mxCell id="1TzVKd0D4Ryt2Q8upEGD-72" value="&amp;lt;&amp;lt;Include&amp;gt;&amp;gt;" style="text;html=1;align=center;verticalAlign=middle;whiteSpace=wrap;rounded=0;rotation=15;" parent="1" vertex="1">
          <mxGeometry x="183" y="-3" width="60" height="30" as="geometry" />
        </mxCell>
        <mxCell id="MJ5cG8MF-ruCktdkaD4u-2" value="" style="endArrow=classic;html=1;rounded=0;dashed=1;" edge="1" parent="1" source="1TzVKd0D4Ryt2Q8upEGD-17" target="1TzVKd0D4Ryt2Q8upEGD-20">
          <mxGeometry width="50" height="50" relative="1" as="geometry">
            <mxPoint x="589" y="673" as="sourcePoint" />
            <mxPoint x="754" y="682" as="targetPoint" />
          </mxGeometry>
        </mxCell>
        <mxCell id="MJ5cG8MF-ruCktdkaD4u-3" value="&amp;lt;&amp;lt;Include&amp;gt;&amp;gt;" style="text;html=1;align=center;verticalAlign=middle;whiteSpace=wrap;rounded=0;rotation=-60;" vertex="1" parent="1">
          <mxGeometry x="196" y="711" width="34" height="21" as="geometry" />
        </mxCell>
        <mxCell id="MJ5cG8MF-ruCktdkaD4u-8" value="&amp;lt;&amp;lt;Include&amp;gt;&amp;gt;" style="text;html=1;align=center;verticalAlign=middle;whiteSpace=wrap;rounded=0;" vertex="1" parent="1">
          <mxGeometry x="130" y="637" width="60" height="30" as="geometry" />
        </mxCell>
        <mxCell id="MJ5cG8MF-ruCktdkaD4u-9" value="" style="endArrow=classic;html=1;rounded=0;dashed=1;" edge="1" parent="1" source="1TzVKd0D4Ryt2Q8upEGD-30" target="1TzVKd0D4Ryt2Q8upEGD-18">
          <mxGeometry width="50" height="50" relative="1" as="geometry">
            <mxPoint x="220" y="670" as="sourcePoint" />
            <mxPoint x="107" y="670" as="targetPoint" />
          </mxGeometry>
        </mxCell>
        <mxCell id="MJ5cG8MF-ruCktdkaD4u-10" value="&amp;lt;&amp;lt;Include&amp;gt;&amp;gt;" style="text;html=1;align=center;verticalAlign=middle;whiteSpace=wrap;rounded=0;rotation=85;" vertex="1" parent="1">
          <mxGeometry x="237" y="545" width="60" height="30" as="geometry" />
        </mxCell>
        <mxCell id="MJ5cG8MF-ruCktdkaD4u-11" value="" style="endArrow=classic;html=1;rounded=0;dashed=1;" edge="1" parent="1" source="1TzVKd0D4Ryt2Q8upEGD-43" target="1TzVKd0D4Ryt2Q8upEGD-55">
          <mxGeometry width="50" height="50" relative="1" as="geometry">
            <mxPoint x="316.121200833918" y="-79.20283234369757" as="sourcePoint" />
            <mxPoint x="147" y="55.21000000000001" as="targetPoint" />
            <Array as="points" />
          </mxGeometry>
        </mxCell>
        <mxCell id="MJ5cG8MF-ruCktdkaD4u-12" value="" style="endArrow=classic;html=1;rounded=0;dashed=1;" edge="1" parent="1" source="1TzVKd0D4Ryt2Q8upEGD-55" target="1TzVKd0D4Ryt2Q8upEGD-41">
          <mxGeometry width="50" height="50" relative="1" as="geometry">
            <mxPoint x="259" y="34" as="sourcePoint" />
            <mxPoint x="172" y="9" as="targetPoint" />
          </mxGeometry>
        </mxCell>
        <mxCell id="MJ5cG8MF-ruCktdkaD4u-13" value="&amp;lt;&amp;lt;Include&amp;gt;&amp;gt;" style="text;html=1;align=center;verticalAlign=middle;whiteSpace=wrap;rounded=0;rotation=0;" vertex="1" parent="1">
          <mxGeometry x="130" y="29" width="60" height="30" as="geometry" />
        </mxCell>
        <mxCell id="MJ5cG8MF-ruCktdkaD4u-14" value="&amp;lt;&amp;lt;Include&amp;gt;&amp;gt;" style="text;html=1;align=center;verticalAlign=middle;whiteSpace=wrap;rounded=0;rotation=45;" vertex="1" parent="1">
          <mxGeometry x="37" y="96" width="60" height="30" as="geometry" />
        </mxCell>
      </root>
    </mxGraphModel>
  </diagram>
</mxfile>
